<?xml version="1.0" standalone="no"?><!DOCTYPE svg PUBLIC "-//W3C//DTD SVG 1.1//EN" "http://www.w3.org/Graphics/SVG/1.1/DTD/svg11.dtd"><svg t="1482375681541" class="icon" style="" viewBox="0 0 1024 1024" version="1.1" xmlns="http://www.w3.org/2000/svg" p-id="695" xmlns:xlink="http://www.w3.org/1999/xlink" width="200" height="200"><defs><style type="text/css"></style></defs><path d="M813.305532 1023.85375c0 0 0-146.416937 0-366.036492 0-54.907814 0-114.390792 0-177.302217 0-31.458638 0-63.771462 0-96.798059 0-16.516224 0-33.207965 0-50.063523 0-8.424854 0-16.896512 0-25.397424l0-12.789396c0-4.604417 0.69037-10.103974 0.4973-15.123783-1.275429-20.588236-5.084165-41.673773-12.912258-61.700352-7.79884-20.014878-18.704345-38.88304-32.312824-55.235447-27.33982-32.856929-62.238607-56.282703-98.635145-72.986146-36.765126-16.58058-74.671117-27.567994-115.695474-32.429836-5.212878-0.538255-10.466711-1.000451-15.954567-1.263728-5.581466-0.263277-11.373553-0.263277-17.001823-0.029253-11.034218 0.49145-21.249353 1.714224-31.37673 3.317286-20.202097 3.206125-39.702123 7.968507-58.921321 14.146734-38.274578 12.43251-75.700821 30.376278-108.721567 57.464523-16.457718 13.462214-31.604903 29.434333-43.943803 47.834447-12.391556 18.312356-21.875367 38.97665-27.521189 60.378118-2.872641 10.683183-4.768233 21.541883-5.82719 32.330376-0.772278 5.417649 0.269127 10.75924 0.011701 16.124234C244.721516 294.015694 245.798025 298.181316 245.798025 302.66287c0 17.856009 0 35.62426 0 53.281349 0 35.320029 0 70.207114 0 104.520841 0 137.26661 0 265.377042 0 375.192669C245.798025 892.320722 245.798025 930.244265 245.798025 930.244265L187.151682 930.244265l93.744049 93.755751L374.651482 930.244265 316.005139 930.244265c0 0 0-37.923543 0-94.586535 0-109.815628 0-237.92606 0-375.192669 0-34.319578 0-69.206663 0-104.520841 0-17.657089 0-35.42534 0-53.281349 0-4.4406 0.965348-9.220534 1.18182-12.426659 0.210621-3.563011 0.579209-7.219632 1.158417-10.689033 0.684519-7.061666 2.153018-13.971216 3.960851-20.675995 7.096769-26.789865 23.414073-50.800698 47.085571-69.990642 23.419923-19.324508 53.047325-33.991945 84.301193-44.066665 15.615232-5.03151 31.821375-8.957258 47.734987-11.473013 7.921703-1.269579 15.896061-2.176421 23.109842-2.486502 3.498655-0.134564 6.827642-0.146265 10.3614 0.023402 3.627368 0.175518 7.436104 0.509002 11.291644 0.895141 31.411833 3.633218 64.093245 12.970764 92.936668 26.117047 28.960435 13.210639 54.492422 31.107602 72.424489 52.719692 17.955469 21.641343 28.509939 46.997812 30.177358 74.30838L743.098418 295.46079l0 12.789396c0 8.506762 0 16.97257 0 25.397424 0 16.855558 0 33.547299 0 50.063523 0 33.032447 0 65.339421 0 96.798059 0 62.911425 0 122.394403 0 177.302217C743.098418 877.442664 743.098418 1023.85375 743.098418 1023.85375L813.305532 1023.85375z" fill="#ffffff" p-id="696"></path></svg>